<?xml version="1.0" encoding="UTF-8"?> <svg xmlns="http://www.w3.org/2000/svg" width="105" height="37" viewBox="0 0 105 37" fill="none"><path d="M38.177 8.71729H34.3296V28.3127H45.6124V24.6133H38.177V8.71729Z" fill="#151417"></path><path d="M55.7768 21.876C55.7768 24.3091 54.4676 25.3457 52.7137 25.3457C51.0957 25.3457 49.9594 24.365 49.9594 22.4595V14.3159H46.3652V22.9064C46.3652 26.6305 48.6749 28.7037 51.6268 28.7037C53.4919 28.7037 54.9431 28.0023 55.7768 26.7423V28.3126H59.371V14.3159H55.7768V21.876Z" fill="#151417"></path><path d="M64.9664 18.2884C64.9664 17.5312 65.6889 17.1401 66.5844 17.1401C67.6157 17.1401 68.3939 17.6739 68.8138 18.5677L71.8769 16.8856C70.79 14.9553 68.8385 13.9187 66.5844 13.9187C63.7128 13.9187 61.2919 15.5139 61.2919 18.3691C61.2919 23.2974 68.4803 22.174 68.4803 24.2223C68.4803 25.0354 67.7022 25.4264 66.5597 25.4264C65.1702 25.4264 64.2192 24.7561 63.8301 23.6078L60.7114 25.3706C61.7119 27.5244 63.7745 28.7037 66.5597 28.7037C69.5425 28.7037 72.1548 27.2451 72.1548 24.2223C72.1486 19.0767 64.9664 20.3615 64.9664 18.2884Z" fill="#151417"></path><path d="M81.313 13.9249C79.448 13.9249 77.9967 14.6263 77.163 15.8863V8.71729H73.5688V28.3127H77.163V20.7526C77.163 18.3195 78.4723 17.2829 80.2261 17.2829C81.8441 17.2829 82.9804 18.2636 82.9804 20.1691V28.3127H86.5746V19.716C86.5808 15.9918 84.265 13.9249 81.313 13.9249Z" fill="#151417"></path><path d="M99.3334 14.316V15.967C98.3329 14.707 96.8261 13.9249 94.7943 13.9249C91.089 13.9249 88.0259 17.1463 88.0259 21.3174C88.0259 25.4885 91.089 28.7099 94.7943 28.7099C96.8261 28.7099 98.3329 27.9278 99.3334 26.6678V28.3189H102.928V14.316H99.3334ZM95.4613 25.2588C93.2628 25.2588 91.6201 23.6637 91.6201 21.3112C91.6201 18.9588 93.2628 17.3636 95.4613 17.3636C97.6907 17.3636 99.3334 18.9588 99.3334 21.3112C99.3334 23.6637 97.6907 25.2588 95.4613 25.2588Z" fill="#151417"></path><path fill-rule="evenodd" clip-rule="evenodd" d="M23.5494 10.6806C23.5494 11.2494 23.4751 11.7676 23.3376 12.2382C29.1561 15.675 26.1695 26.849 25.2886 29.7135C25.2642 29.7929 25.1276 29.7619 25.13 29.6789C25.1574 28.7329 25.0097 27.4095 24.3655 26.1355C24.3849 26.3036 24.3949 26.4747 24.3949 26.6481C24.3949 29.0813 22.4331 31.0538 20.013 31.0538C17.593 31.0538 15.6312 29.0813 15.6312 26.6481C15.6312 26.1966 15.6988 25.761 15.8242 25.3508C15.7893 25.3416 15.7524 25.3321 15.714 25.3227C15.4602 25.26 15.1936 25.2106 15.0159 25.2106C14.839 25.2106 14.583 25.2589 14.3416 25.32C14.2972 25.3313 14.2548 25.3425 14.2155 25.3534C14.3405 25.7629 14.4079 26.1978 14.4079 26.6485C14.4079 29.0817 12.446 31.0542 10.026 31.0542C7.78852 31.0542 5.94271 29.368 5.67702 27.1905C5.22584 28.9983 5.21501 30.9581 5.29277 33.1946C5.29523 33.2653 5.20425 33.296 5.1691 33.2346C3.22011 29.8307 1.42534 22.7862 2.72384 17.5917C3.88617 12.9418 7.14231 10.701 9.187 9.9327C9.55928 6.28593 12.6238 3.44128 16.3492 3.44128C20.3257 3.44128 23.5494 6.68245 23.5494 10.6806ZM8.14992 22.6659C8.71863 22.3946 9.3547 22.2428 10.026 22.2428C11.5965 22.2428 12.974 23.0735 13.7476 24.3218C13.8307 24.2967 13.9436 24.2642 14.0722 24.2316C14.329 24.1666 14.6955 24.0887 15.0159 24.0887C15.3355 24.0887 15.712 24.1673 15.9769 24.2327C16.0999 24.263 16.2095 24.2933 16.2937 24.3176C17.0678 23.0715 18.4441 22.2424 20.013 22.2424C20.1841 22.2424 20.3528 22.2522 20.5187 22.2714C19.0105 20.4762 18.4224 17.9702 18.2095 16.3943C13.1718 18.5862 10.0574 20.5923 8.14992 22.6659ZM23.0245 26.6481C23.0245 28.3315 21.6692 29.6834 20.013 29.6834C18.3569 29.6834 17.0016 28.3315 17.0016 26.6481C17.0016 24.9647 18.3569 23.6128 20.013 23.6128C21.6692 23.6128 23.0245 24.9647 23.0245 26.6481ZM13.0375 26.6485C13.0375 28.3319 11.6822 29.6838 10.026 29.6838C8.36984 29.6838 7.01455 28.3319 7.01455 26.6485C7.01455 24.9651 8.36984 23.6132 10.026 23.6132C11.6822 23.6132 13.0375 24.9651 13.0375 26.6485Z" fill="#151417"></path></svg> 