<?xml version="1.0" encoding="UTF-8"?> <svg xmlns="http://www.w3.org/2000/svg" width="26" height="26" viewBox="0 0 26 26" fill="none"><g clip-path="url(#clip0)"><path fill-rule="evenodd" clip-rule="evenodd" d="M24.5544 7.0374C24.6064 6.91784 24.6532 6.79308 24.7 6.66832L24.7 6.66821C25.7764 3.87072 25.9636 1.40082 25.9948 0.70925C26.0052 0.522058 25.9324 0.334865 25.7972 0.199671C25.6672 0.0644762 25.48 -0.00832085 25.2876 0.00207873C24.6012 0.0332775 22.1312 0.22567 19.3284 1.29163C19.2036 1.33843 19.0788 1.39042 18.954 1.44242C17.1704 0.522058 15.1424 0.00207873 13 0.00207873C5.8188 0.00207873 0 5.82065 0 13.0016C0 15.7257 0.837428 18.2539 2.26898 20.3426L9.32308 15.1511L10.0787 15.9072L10.8392 16.6681H10.8489V16.6779L5.65606 23.7304C7.7454 25.163 10.2746 26.001 13 26.001C20.1812 26.001 26 20.1825 26 13.0016C26 10.8488 25.48 8.82093 24.5544 7.0374ZM25.3136 0.510607C24.8471 0.532302 23.5446 0.626913 21.8764 1.03441C21.1512 1.21088 20.3567 1.44611 19.5312 1.75961L19.535 1.76183C16.7995 2.80645 13.7282 4.71824 11.7312 8.21667L11.7312 8.21668C9.5056 7.6135 8.7932 8.58586 8.7932 8.58586L5.6264 11.7525L5.62642 11.7525L5.6264 11.7526L9.4484 12.1685C9.5888 12.1841 9.724 12.2517 9.8228 12.3505C9.89564 12.4234 9.94896 12.5144 9.97885 12.6126C10.0012 12.6862 10.0105 12.7638 10.0049 12.8407C10.0031 12.8664 9.9996 12.8919 9.9944 12.9173V12.9173C9.89203 13.434 9.80336 13.9736 9.73698 14.5318C9.73256 14.569 9.72823 14.6063 9.724 14.6436L9.724 14.6436L10.5352 15.4548L11.3464 16.266C11.9444 16.1984 12.5268 16.11 13.0728 15.9956C13.2808 15.954 13.494 16.0164 13.6396 16.1672C13.7153 16.2429 13.7662 16.3323 13.7963 16.4295C13.805 16.4575 13.8119 16.4862 13.8173 16.5154C13.8189 16.5241 13.8203 16.5328 13.8216 16.5416L14.2376 20.3634L17.42 17.2123C17.42 17.2123 17.4403 17.1974 17.4733 17.1652C17.6691 16.974 18.3098 16.1744 17.7892 14.2745C19.3759 13.367 20.636 12.2385 21.6367 11.0207C24.5663 7.45581 25.2731 3.12599 25.4432 1.33674C25.4703 1.05178 25.4838 0.831239 25.4904 0.688451L25.4906 0.681007C25.492 0.585044 25.4103 0.50552 25.3136 0.510607ZM21.4246 6.61679C21.4801 6.33123 21.4632 6.03464 21.374 5.75579C21.2921 5.4999 21.1493 5.25896 20.9456 5.05523C20.2644 4.37405 19.1672 4.37405 18.486 5.05523C18.2306 5.31067 18.0709 5.6246 18.007 5.95316C17.9541 6.22571 17.967 6.50832 18.0459 6.77595C18.1254 7.04604 18.2722 7.30087 18.486 7.5147C19.1672 8.19068 20.2644 8.19068 20.9456 7.5147C21.201 7.25927 21.3607 6.94534 21.4246 6.61679Z" fill="#8B8B8B"></path></g><defs><clipPath id="clip0"><rect width="26" height="26" fill="white"></rect></clipPath></defs></svg> 