<?xml version="1.0" encoding="UTF-8"?> <svg xmlns="http://www.w3.org/2000/svg" width="77" height="21" viewBox="0 0 77 21" fill="none"><g clip-path="url(#clip0)"><path d="M20.776 8.59993C19.46 9.93993 19.46 12.0919 20.776 13.4319C21.412 14.0679 22.276 14.4199 23.176 14.3999C24.064 14.4119 24.916 14.0479 25.524 13.3999C26.756 12.0239 26.756 9.94393 25.524 8.56793C24.912 7.93193 24.06 7.57993 23.176 7.59993C22.272 7.58793 21.404 7.95193 20.776 8.59993ZM19.976 14.9479V20.7919H17.336V8.80393C17.336 7.85993 17.116 7.50793 16.536 7.50793C16.352 7.51193 16.168 7.52793 15.988 7.55193V5.41993C16.408 5.28793 16.844 5.22793 17.284 5.24393C17.82 5.21593 18.352 5.33993 18.824 5.59593C19.296 5.89993 19.624 6.38393 19.724 6.93593C20.496 5.77193 21.768 5.19993 23.528 5.19993C25.024 5.16793 26.464 5.77593 27.488 6.86793C28.548 7.97993 29.124 9.46393 29.088 10.9999C29.128 12.5279 28.552 14.0079 27.488 15.1079C26.464 16.1999 25.024 16.8079 23.528 16.7799C21.744 16.7799 20.4 15.9879 20 14.9319L19.976 14.9479Z" fill="#600DFF"></path><path d="M12.424 1.224V10.384C12.424 13.024 11.104 14.296 8.972 14.296C6.84 14.296 5.5 13.024 5.5 10.384V6.092V1.224L0 6.716H4.42L2.748 7.628V10.672C2.748 12.628 3.32 14.14 4.488 15.196C5.72 16.288 7.328 16.86 8.972 16.796C10.612 16.856 12.208 16.284 13.436 15.196C14.6 14.14 15.172 12.628 15.172 10.672V1.224H12.424Z" fill="#600DFF"></path><path d="M30.428 16.536V1.224H32.14V14.956H38.452V16.536H30.428Z" fill="#600DFF"></path><path d="M47.864 9.924C47.872 9.048 47.512 8.212 46.872 7.616C46.24 6.988 45.384 6.64 44.496 6.652C43.536 6.636 42.6 6.98 41.88 7.616C41.18 8.188 40.748 9.024 40.68 9.924H47.864ZM38.96 11.044C38.96 9.264 39.488 7.844 40.52 6.76C41.556 5.68 43 5.092 44.496 5.136C45.9 5.084 47.252 5.672 48.168 6.736C49.128 7.808 49.644 9.212 49.6 10.652C49.604 10.884 49.596 11.12 49.576 11.352H40.584C40.672 13.792 42.232 15.352 44.54 15.352C46.06 15.352 46.96 14.872 47.952 13.816L49.028 14.872C47.896 16.156 46.252 16.872 44.54 16.824C43.036 16.88 41.576 16.32 40.496 15.268C39.464 14.232 38.96 12.868 38.96 11.136V11.044V11.044ZM59.052 14.12C59.852 13.28 60.284 12.16 60.252 11C60.288 9.848 59.856 8.732 59.052 7.904C58.3 7.076 57.224 6.62 56.108 6.652C55.016 6.628 53.972 7.088 53.248 7.904C52.488 8.752 52.088 9.86 52.128 11C52.088 12.144 52.488 13.26 53.248 14.12C53.98 14.92 55.024 15.368 56.108 15.348C57.22 15.376 58.292 14.932 59.052 14.12ZM60.04 7.112V5.464H61.668V14.052C61.668 15.02 61.888 15.436 62.504 15.436C62.696 15.432 62.888 15.416 63.076 15.392V16.624C62.748 16.748 62.396 16.808 62.044 16.8C61.632 16.816 61.224 16.708 60.876 16.492C60.412 16.088 60.14 15.508 60.128 14.892C59.296 16.188 57.952 16.844 56.128 16.844C54.62 16.88 53.164 16.276 52.128 15.176C49.96 12.808 49.96 9.176 52.128 6.808C53.16 5.7 54.616 5.088 56.128 5.116C58.108 5.136 59.404 5.992 60.04 7.112ZM72 14.12C72.8 13.28 73.232 12.16 73.2 11C73.236 9.848 72.804 8.732 72 7.904C71.248 7.076 70.172 6.62 69.052 6.652C67.964 6.628 66.916 7.088 66.196 7.904C65.436 8.752 65.032 9.86 65.072 11C65.036 12.144 65.436 13.26 66.196 14.12C66.928 14.92 67.968 15.368 69.052 15.348C70.164 15.376 71.236 14.932 72 14.12ZM72.988 7.112V1.224H74.616V14.056C74.616 15.024 74.832 15.44 75.448 15.44C75.624 15.44 75.824 15.416 76.02 15.396V16.624C75.692 16.748 75.34 16.808 74.988 16.8C74.576 16.816 74.172 16.708 73.824 16.492C73.36 16.088 73.088 15.508 73.076 14.892C72.244 16.188 70.9 16.844 69.052 16.844C67.544 16.88 66.088 16.276 65.052 15.176C62.884 12.808 62.884 9.176 65.052 6.808C66.084 5.704 67.54 5.088 69.052 5.116C71.036 5.136 72.332 5.992 72.968 7.112H72.988V7.112Z" fill="#600DFF"></path></g><defs><clipPath id="clip0"><rect width="77" height="21" fill="white"></rect></clipPath></defs></svg> 