<?xml version="1.0" encoding="UTF-8"?> <svg xmlns="http://www.w3.org/2000/svg" width="26" height="26" viewBox="0 0 26 26" fill="none"><path d="M18.2002 11.4982C17.0474 12.6721 17.0474 14.5573 18.2002 15.7311C18.7574 16.2883 19.5143 16.5967 20.3027 16.5791C21.0806 16.5896 21.827 16.2708 22.3596 15.7031C23.4388 14.4977 23.4388 12.6756 22.3596 11.4702C21.8234 10.913 21.0771 10.6047 20.3027 10.6222C19.5108 10.6117 18.7504 10.9305 18.2002 11.4982ZM17.4994 17.0592V22.1787H15.1867V11.6769C15.1867 10.8499 14.994 10.5416 14.4859 10.5416C14.3247 10.5451 14.1635 10.5591 14.0058 10.5801V8.71246C14.3738 8.59682 14.7557 8.54426 15.1412 8.55828C15.6107 8.53375 16.0767 8.64237 16.4902 8.86663C16.9037 9.13294 17.191 9.55694 17.2786 10.0405C17.9549 9.02081 19.0692 8.51973 20.611 8.51973C21.9216 8.4917 23.183 9.02432 24.0801 9.98093C25.0087 10.9551 25.5133 12.2551 25.4817 13.6007C25.5168 14.9392 25.0122 16.2357 24.0801 17.1994C23.183 18.156 21.9216 18.6886 20.611 18.6641C19.0482 18.6641 17.8708 17.9703 17.5204 17.0452L17.4994 17.0592Z" fill="#8B8B8B"></path><path d="M10.9901 5V12.8922C10.9901 15.1669 9.82248 16.2628 7.93654 16.2628C6.05059 16.2628 4.86524 15.1669 4.86524 12.8922V9.19426V5L0 9.7319H3.90988L2.43085 10.5177V13.1404C2.43085 14.8257 2.93684 16.1284 3.97004 17.0383C5.05985 17.9791 6.48227 18.472 7.93654 18.4168C9.38726 18.4685 10.7991 17.9757 11.8853 17.0383C12.915 16.1284 13.421 14.8257 13.421 13.1404V5H10.9901Z" fill="#8B8B8B"></path></svg> 