<?xml version="1.0" encoding="UTF-8"?> <svg xmlns="http://www.w3.org/2000/svg" width="117" height="25" viewBox="0 0 117 25" fill="none"><path d="M110.765 17.6595C111.229 17.6648 111.688 17.5698 112.115 17.38C112.526 17.2007 112.895 16.9423 113.201 16.6206C113.512 16.2936 113.766 15.9087 113.94 15.4921C114.483 14.1526 114.193 12.6233 113.201 11.5739C112.89 11.2522 112.516 10.9885 112.104 10.8145C111.245 10.4453 110.264 10.4453 109.404 10.8145C108.993 10.9938 108.624 11.2522 108.318 11.5739C108.007 11.9008 107.759 12.2911 107.596 12.7129C107.253 13.6094 107.253 14.6009 107.596 15.4921C107.759 15.914 108.007 16.2936 108.318 16.6206C108.629 16.9423 108.998 17.2007 109.404 17.38C109.837 17.5698 110.301 17.6648 110.765 17.6595ZM110.765 19.6581C110.016 19.6634 109.278 19.5157 108.587 19.2257C107.258 18.6614 106.203 17.6067 105.639 16.2778C105.059 14.8856 105.059 13.3247 105.639 11.9325C106.198 10.5983 107.253 9.5383 108.587 8.97404C109.974 8.39395 111.54 8.39395 112.932 8.97404C114.266 9.53303 115.332 10.5983 115.891 11.9325C116.471 13.3247 116.471 14.8856 115.891 16.2778C115.326 17.6067 114.266 18.6667 112.932 19.2257C112.247 19.5105 111.508 19.6581 110.765 19.6581ZM98.9839 8.75255H100.845V8.14082C100.83 7.44472 100.898 6.74862 101.051 6.07362C101.162 5.58318 101.399 5.12439 101.742 4.75524C102.106 4.40719 102.554 4.15934 103.05 4.05387C103.73 3.90093 104.426 3.8271 105.122 3.84292H105.639V5.82048H105.28C104.869 5.81521 104.453 5.84158 104.046 5.89959C103.783 5.93123 103.535 6.04725 103.345 6.23709C103.171 6.43749 103.06 6.68533 103.029 6.94901C102.971 7.3498 102.944 7.75059 102.95 8.15664V8.75255H105.46V10.6668H102.944V19.4366H100.845V10.6668H98.9839V8.75255V8.75255ZM88.8166 8.75255H90.9155V10.2344C91.6959 9.13224 92.9721 8.49414 94.3221 8.53106C94.9497 8.52051 95.5667 8.63126 96.152 8.85802C96.6794 9.05841 97.1487 9.38009 97.539 9.79142C97.9292 10.2186 98.2245 10.7248 98.4091 11.2733C98.62 11.9061 98.7255 12.5706 98.715 13.2403V19.4419H96.5528V13.4038C96.5528 12.4915 96.3208 11.769 95.862 11.2258C95.3979 10.6879 94.7229 10.4137 93.8264 10.4137C93.4362 10.4084 93.0512 10.4875 92.6874 10.6299C92.3446 10.7723 92.0334 10.9832 91.7803 11.2522C91.5166 11.537 91.311 11.8745 91.1791 12.2436C91.0262 12.6602 90.9524 13.1032 90.9629 13.5462V19.4419H88.8271V8.75255H88.8166ZM84.8035 19.4366H86.9551V8.75255H84.8035V19.4366ZM84.3658 5.54099C84.3552 5.13493 84.5082 4.74469 84.7929 4.45465C85.0777 4.16461 85.4679 4.0064 85.8687 4.01695C86.28 4.00113 86.6808 4.15933 86.9709 4.45465C87.2556 4.74469 87.4086 5.13493 87.398 5.54099C87.4086 5.94705 87.2556 6.33728 86.9709 6.62733C86.6808 6.92264 86.28 7.08085 85.8687 7.06503C85.4627 7.08085 85.0671 6.92264 84.7824 6.62733C84.5029 6.33728 84.3552 5.94705 84.3658 5.54099ZM66.7259 8.75255H68.8406V9.98127C69.1676 9.53302 69.5947 9.17443 70.0852 8.9213C70.6389 8.65235 71.2506 8.52052 71.8676 8.53634C72.7219 8.53634 73.4338 8.69981 73.9928 9.02677C74.5465 9.34845 74.9895 9.83362 75.269 10.4137C75.6118 9.84416 76.0969 9.37482 76.6717 9.04787C77.3046 8.69454 78.0218 8.51524 78.7495 8.53106C79.3981 8.51524 80.0415 8.62598 80.648 8.84747C81.1648 9.03732 81.6288 9.35372 81.998 9.75978C82.3618 10.1711 82.6308 10.6563 82.789 11.1836C82.9683 11.7901 83.0527 12.4124 83.0474 13.0452V19.4366H80.8483V13.1612C80.8483 12.3332 80.6585 11.6635 80.2735 11.1625C79.8938 10.6616 79.2769 10.4084 78.4331 10.4084C77.6684 10.4084 77.0567 10.6563 76.6032 11.1467C76.1497 11.6371 75.9229 12.3754 75.9176 13.3563V19.4366H73.766V13.0241C73.766 12.2067 73.5762 11.5633 73.2018 11.1045C72.8274 10.6457 72.2315 10.4137 71.4088 10.4084C70.6178 10.4084 69.9955 10.6616 69.542 11.1731C69.0885 11.6793 68.8564 12.444 68.8617 13.4565V19.4366H66.7259V8.75255V8.75255ZM59.902 17.5962C60.8091 17.6015 61.6792 17.2271 62.3067 16.5679C62.6073 16.2462 62.8499 15.8718 63.0187 15.4604C63.3773 14.585 63.3773 13.6042 63.0187 12.7288C62.8499 12.3174 62.6021 11.943 62.2962 11.6213C61.9903 11.2996 61.6212 11.0465 61.2204 10.8672C60.3766 10.4981 59.4221 10.4981 58.5784 10.8672C57.7663 11.2311 57.1282 11.9008 56.8012 12.7288C56.4584 13.6094 56.4584 14.5798 56.8012 15.4604C56.9647 15.8718 57.2073 16.2462 57.5131 16.5679C57.819 16.8843 58.1776 17.1427 58.5784 17.322C58.995 17.5066 59.4485 17.6015 59.902 17.5962ZM59.902 19.6581C59.1585 19.6634 58.4255 19.5105 57.7399 19.2204C56.4057 18.6614 55.3405 17.5962 54.7815 16.262C54.2014 14.8751 54.2014 13.3141 54.7815 11.9272C55.3405 10.5877 56.4004 9.52775 57.7399 8.96876C59.1268 8.38867 60.6878 8.38867 62.0747 8.96876C63.4089 9.52775 64.4742 10.593 65.0331 11.9272C65.6132 13.3141 65.6132 14.8751 65.0331 16.262C64.4742 17.6015 63.4142 18.6614 62.0747 19.2204C61.3892 19.5105 60.6509 19.6581 59.902 19.6581ZM47.9154 17.5962C48.8224 17.6015 49.6925 17.2271 50.3201 16.5679C50.6207 16.2462 50.8633 15.8718 51.032 15.4604C51.3906 14.585 51.3906 13.6042 51.032 12.7288C50.8633 12.3174 50.6154 11.943 50.3095 11.6213C50.0037 11.2996 49.6345 11.0465 49.2285 10.8672C48.3847 10.4981 47.4302 10.4981 46.5865 10.8672C45.7743 11.2311 45.1362 11.9008 44.8093 12.7288C44.4665 13.6094 44.4665 14.5798 44.8093 15.4604C45.1362 16.2884 45.7743 16.9581 46.5865 17.322C47.0083 17.5118 47.4619 17.6015 47.9154 17.5962ZM47.9154 19.6581C47.1718 19.6634 46.4335 19.5157 45.748 19.2257C44.4138 18.6667 43.3485 17.6015 42.7895 16.2673C42.2095 14.8804 42.2095 13.3194 42.7895 11.9325C43.3485 10.5983 44.4085 9.53303 45.748 8.97404C47.1349 8.39395 48.6959 8.39395 50.0828 8.97404C51.417 9.53303 52.4822 10.5983 53.0412 11.9325C53.6213 13.3194 53.6213 14.8804 53.0412 16.2673C52.4822 17.6067 51.4222 18.6667 50.0828 19.2257C49.3972 19.5105 48.6589 19.6581 47.9154 19.6581ZM31.3882 19.4366V17.4696L38.6709 10.6194H33.5609V11.9694H31.5043V8.74727H41.4132V10.7143L34.1885 17.5224H39.4725V16.146H41.5292V19.4314H31.3882V19.4366Z" fill="#600DFF"></path><path d="M20.1946 21.3426H10.6881C10.4733 21.3426 10.2968 21.5191 10.2968 21.7416V23.3068C10.2968 23.5294 10.4656 23.7058 10.6881 23.7058H10.6958H22.1665C22.3814 23.7058 22.5578 23.5294 22.5578 23.3145V17.7671C22.5578 17.5523 22.3814 17.3682 22.1665 17.3682H20.6013C20.3864 17.3682 20.21 17.5446 20.21 17.7671V21.3426H20.1946Z" fill="#600DFF"></path><path d="M2.35553 3.5804H12.8672C13.082 3.5804 13.2585 3.40393 13.2585 3.18909V1.67756C13.2585 1.46273 13.082 1.28625 12.8672 1.28625H0.391309C0.176473 1.28625 0 1.46273 0 1.67756V7.06381C0 7.28632 0.176473 7.4628 0.391309 7.4628H1.95654C2.17138 7.4628 2.34785 7.28632 2.34785 7.06381V3.5804H2.35553Z" fill="#600DFF"></path><path d="M16.6191 1.28625H22.1511C22.366 1.28625 22.5425 1.46273 22.5425 1.67756V6.99476C22.5425 7.2096 22.366 7.38607 22.1511 7.38607H20.5859C20.3711 7.38607 20.1946 7.2096 20.1946 6.99476V5.36047L3.50643 21.3504H6.93614C7.15098 21.3504 7.32745 21.5269 7.32745 21.7494V23.3146C7.32745 23.5371 7.15098 23.7136 6.93614 23.7136H0.391309C0.176473 23.7136 0 23.5371 0 23.3146V21.3581L18.4989 3.64178H16.6268C16.412 3.64178 16.2355 3.46531 16.2355 3.2428V1.66989C16.2278 1.46273 16.4043 1.28625 16.6191 1.28625Z" fill="#600DFF"></path></svg> 