<svg width="26" height="26" viewBox="0 0 26 26" fill="none" xmlns="http://www.w3.org/2000/svg">
<path d="M24.4627 1.43705C24.4627 1.20702 24.2796 1.023 24.0507 1.023H18.3052C18.0763 1.023 17.8931 1.20702 17.8931 1.43705V3.07024C17.8931 3.30026 18.0763 3.48429 18.3052 3.48429H20.2509L1.02289 22.0014V24.0486C1.02289 24.2787 1.20602 24.4627 1.43492 24.4627H8.23338C8.46228 24.4627 8.6454 24.2787 8.6454 24.0486V22.4155C8.6454 22.1854 8.46228 22.0014 8.23338 22.0014H4.66247L22.0134 5.30149V7.00369C22.0134 7.23372 22.1965 7.41773 22.4254 7.41773H24.0507C24.2796 7.41773 24.4627 7.23372 24.4627 7.00369V1.43705Z" fill="#8B8B8B"/>
<path d="M3.03725 7.46374C3.26615 7.46374 3.44928 7.27972 3.44928 7.04969V3.41528H14.3909C14.6198 3.41528 14.8029 3.23126 14.8029 3.00123V1.41405C14.8029 1.18402 14.6198 1 14.3909 1H1.41203C1.18312 1 1 1.18402 1 1.41405V7.04969C1 7.27972 1.18312 7.46374 1.41203 7.46374H3.03725Z" fill="#8B8B8B"/>
<path d="M22.4254 17.8149C22.1965 17.8149 22.0134 17.9989 22.0134 18.229H21.9905V21.9784H12.1019C11.873 21.9784 11.6898 22.1624 11.6898 22.3925V24.0256C11.6898 24.2557 11.873 24.4397 12.1019 24.4397H24.0507C24.2796 24.4397 24.4627 24.2557 24.4627 24.0256V18.229C24.4627 17.9989 24.2796 17.8149 24.0507 17.8149H22.4254Z" fill="#8B8B8B"/>
</svg>
